<svg width="27" height="32" viewBox="0 0 27 32" fill="none" xmlns="http://www.w3.org/2000/svg">
<path fill-rule="evenodd" clip-rule="evenodd" d="M1.54286 0C0.69082 0 0 0.682244 0 1.52381V9.14284C0 9.9844 0.69082 10.6666 1.54286 10.6666H9.25714C10.1092 10.6666 10.8 11.3489 10.8 12.1904V19.9694C10.8 20.7226 11.4181 21.3333 12.1809 21.3333H16.2C22.1646 21.3333 27 16.5577 27 10.6666C27 4.77561 22.1646 0 16.2 0H1.54286ZM1.54286 21.3334C0.690766 21.3334 5.1915e-06 22.0156 5.1915e-06 22.8572V30.4762C5.1915e-06 31.3178 0.690766 32 1.54286 32H9.25714C10.1092 32 10.8 31.3178 10.8 30.4762V22.8572C10.8 22.0156 10.1092 21.3334 9.25714 21.3334H1.54286Z" fill="#6A43FB"/>
</svg>
